<svg width="20" height="20" viewBox="0 0 20 20" fill="none" xmlns="http://www.w3.org/2000/svg">
<path fill-rule="evenodd" clip-rule="evenodd" d="M17.1237 7.31876L13.7074 8.70426V7.24976C13.7074 6.69776 13.2593 6.24976 12.7071 6.24976H5.99706C5.72049 6.24976 5.49694 6.02626 5.49694 5.74976V5.24976C5.49694 4.97376 5.72049 4.74976 5.99706 4.74976H10.9982C11.2743 4.74976 11.4984 4.52576 11.4984 4.24976V3.24976C11.4984 2.97376 11.2743 2.74976 10.9982 2.74976H4.49671C3.94408 2.74976 3.49647 3.19726 3.49647 3.74976V5.74976C3.49647 6.02626 3.27242 6.24976 2.99635 6.24976H2.50024C1.94811 6.24976 1.5 6.69776 1.5 7.24976V16.2498C1.5 16.8018 1.94811 17.2498 2.50024 17.2498H12.7071C13.2593 17.2498 13.7074 16.8018 13.7074 16.2498V14.7348L17.1137 16.1598C17.7728 16.4353 18.5 15.9513 18.5 15.2373V8.24526C18.5 7.53576 17.7813 7.05226 17.1237 7.31876ZM11.7069 14.7498C11.7069 15.0258 11.4828 15.2498 11.2068 15.2498H4.00057C3.7245 15.2498 3.50095 15.0258 3.50095 14.7498V8.74981C3.50095 8.47381 3.7245 8.24981 4.00057 8.24981H11.2068C11.4828 8.24981 11.7069 8.47381 11.7069 8.74981V14.7498ZM16.4996 12.9579C16.4996 13.3129 16.1395 13.5549 15.8104 13.4209L14.0185 12.6904C13.8304 12.6139 13.7074 12.4309 13.7074 12.2274V11.2054C13.7074 11.0004 13.8329 10.8159 14.024 10.7404L15.8154 10.0334C16.144 9.90343 16.4996 10.1454 16.4996 10.4984V12.9579Z" fill="#141C1E"/>
</svg>
