<svg width="20" height="20" viewBox="0 0 20 20" fill="none" xmlns="http://www.w3.org/2000/svg">
    <path d="M2.09776 13.5684H5.21414C6.32713 13.5684 7.05055 12.3997 6.54973 11.4537C6.21581 10.7858 6.49406 9.9511 7.10623 9.56158C8.49747 8.72683 11.4469 8.67118 12.8938 9.56158C13.5616 9.8955 13.7842 10.7859 13.4503 11.4537C12.9494 12.3997 13.6729 13.5684 14.7859 13.5684H17.9023C18.737 13.5127 19.4048 12.8449 19.4048 12.0658V9.95113C19.3492 7.78079 15.2311 6 10 6C4.76894 6 0.595193 7.72512 0.595215 9.95113L0.595215 12.0658C0.650843 12.9006 1.31864 13.5684 2.09776 13.5684Z" fill="white"/>
</svg>
