<svg width="20" height="20" viewBox="0 0 20 20" fill="none" xmlns="http://www.w3.org/2000/svg">
<path d="M14.0104 18.9965C6.80702 18.8314 1 12.9224 1 5.68C1 3.09836 3.09867 1 5.68 1H7.24759C7.71504 1 8.12012 1.32383 8.22305 1.77981L9.60279 7.89215C9.69847 8.31603 9.50946 8.75319 9.1351 8.97383L8.541 9.324L8.66573 9.51498C9.15882 10.2372 9.78075 10.8595 10.4948 11.3461L10.673 11.462L10.9639 10.9098C11.1753 10.5086 11.6301 10.2998 12.0721 10.4012L18.2235 11.8116C18.6779 11.9158 19 12.3201 19 12.7863C19 13.2975 19 13.8088 19 14.32C19 16.8302 17.0168 18.8831 14.534 18.9952L14.32 19L14.0104 18.9965ZM5.68 3C4.20317 3 3 4.20299 3 5.68C3 11.8238 7.92122 16.841 14.0283 16.9963L14.32 17L14.4892 16.9947C15.8321 16.9106 16.9106 15.8321 16.9947 14.4892L16.9975 14.4398C17.0253 13.9534 16.6984 13.5177 16.2236 13.4084L12.37 12.521L11.9702 13.2852C11.7241 13.7557 11.1531 13.9518 10.6698 13.7318L10.6697 13.7317C8.84371 12.9006 7.33972 11.4496 6.41997 9.63944L6.27214 9.33447L6.27184 9.33382C6.04847 8.85016 6.2435 8.27631 6.71532 8.02891L7.478 7.629L6.58486 3.72137C6.48839 3.29931 6.11294 3 5.68 3Z" fill="#FFFFFF"/>
</svg>
