<svg width="24" height="24" viewBox="0 0 24 24" fill="none" xmlns="http://www.w3.org/2000/svg">
    <path fill-rule="evenodd" clip-rule="evenodd" d="M20.3661 9.8925H21.5435C21.8684 9.8925 22.1322 10.1685 22.1322 10.5093V11.7435C22.1322 12.0843 21.8684 12.3609 21.5435 12.3609H20.3661C20.0411 12.3609 19.7774 12.6369 19.7774 12.9777V14.0577C19.7774 14.3985 19.5137 14.6751 19.1887 14.6751H18.0114C17.6864 14.6751 17.4227 14.3985 17.4227 14.0577V12.9777C17.4227 12.6369 17.1589 12.3609 16.834 12.3609H15.6566C15.3317 12.3609 15.0679 12.0843 15.0679 11.7435V10.5093C15.0679 10.1685 15.3317 9.8925 15.6566 9.8925H16.834C17.1589 9.8925 17.4227 9.6159 17.4227 9.2751V8.0925C17.4227 7.7517 17.6864 7.4751 18.0114 7.4751H19.1887C19.5137 7.4751 19.7774 7.7517 19.7774 8.0925V9.2751C19.7774 9.6159 20.0411 9.8925 20.3661 9.8925ZM15.4293 17.9356L15.4093 17.8606C14.9201 16.0432 13.9799 14.4064 12.7084 13.0774C12.5541 12.916 12.2922 12.922 12.1403 13.0852C11.1089 14.1946 9.55008 14.8114 7.85937 14.5354C6.8121 14.3644 5.8755 13.8358 5.17849 13.0846C5.02779 12.922 4.76641 12.9202 4.61335 13.0798C3.34238 14.4088 2.40342 16.0444 1.91481 17.8606L1.89538 17.9356C1.76057 18.4348 2.1391 18.925 2.65832 18.925H14.6658C15.1856 18.925 15.5635 18.4348 15.4293 17.9356Z" fill="#141C1E"/>
    <path fill-rule="evenodd" clip-rule="evenodd" d="M8.00456 12.9529C10.6625 13.3987 12.9272 11.0791 12.4909 8.35686C12.2272 6.70865 10.9292 5.37965 9.32028 5.10905C6.66294 4.66265 4.39827 6.98225 4.83389 9.70386C5.09763 11.3527 6.39568 12.6823 8.00456 12.9529ZM10.1211 8.73606C10.0151 8.07385 9.48498 7.5707 8.92268 7.47589C7.96943 7.31608 7.01384 8.13819 7.20377 9.32478C7.30989 9.98821 7.84057 10.4913 8.40219 10.586C9.35652 10.7454 10.3112 9.92241 10.1211 8.73606Z" fill="#141C1E"/>
</svg>
