<svg width="20" height="20" viewBox="0 0 20 20" fill="none" xmlns="http://www.w3.org/2000/svg">
<path d="M6.49995 7.3627V7.6818C6.49995 9.55883 8.06985 11.0862 9.99995 11.0862C10.4131 11.0862 10.8097 11.0162 11.178 10.8878L6.49995 7.3627Z" />
<path d="M12.454 11.8494C11.7512 12.2516 10.9315 12.4826 10.057 12.4826H9.94296C7.49096 12.4826 5.46996 10.6665 5.24796 8.35479C5.22446 8.112 5.00646 7.9304 4.75396 7.9304H3.75146C3.45746 7.9304 3.22796 8.17463 3.25146 8.45739C3.49346 11.3462 5.70846 13.6989 8.58896 14.2712C8.82596 14.3184 9.00096 14.5101 9.00096 14.7437V15.8387C9.00096 16.1051 8.77746 16.3209 8.50146 16.3209H6.50396C6.22796 16.3209 6.00446 16.5367 6.00446 16.8031V17.7675C6.00446 18.0338 6.22796 18.2497 6.50396 18.2497H13.496C13.772 18.2497 13.9955 18.0338 13.9955 17.7675V16.8031C13.9955 16.5367 13.772 16.3209 13.496 16.3209H11.4985C11.2225 16.3209 10.999 16.1051 10.999 15.8387L10.999 14.7437C10.999 14.5101 11.174 14.3184 11.411 14.2712C12.4058 14.0735 13.3213 13.6635 14.1035 13.0924L12.454 11.8494Z" />
<path d="M15.5362 11.6677L13.9611 10.4808C14.3955 9.86309 14.6768 9.13734 14.752 8.35479C14.7755 8.112 14.994 7.9304 15.246 7.9304H16.2485C16.5425 7.9304 16.772 8.17463 16.7485 8.45739C16.6488 9.6475 16.2142 10.7466 15.5362 11.6677Z" />
<path d="M12.8558 9.64791L11.2529 8.44002C11.3943 8.21985 11.4761 7.95987 11.4761 7.68161V5.15399C11.4761 4.36226 10.814 3.71856 9.9999 3.71856C9.18582 3.71856 8.52371 4.36226 8.52371 5.15399L8.52371 6.38344L6.51222 4.86767C6.66224 3.12376 8.16904 1.74976 9.99995 1.74976C11.93 1.74976 13.4999 3.27666 13.4999 5.15418V7.6818C13.4999 8.41357 13.2613 9.09221 12.8558 9.64791Z" />
<path d="M0.237928 5.14791C-0.00925055 4.96164 -0.0749068 4.63187 0.0912798 4.41133L0.693095 3.6127C0.859281 3.39216 1.17278 3.3481 1.39332 3.51429L19.7948 17.3808C20.0154 17.547 20.0594 17.8605 19.8932 18.081L19.2914 18.8797C19.1252 19.1002 18.7901 19.128 18.543 18.9417L0.237928 5.14791Z" />
</svg>
