<svg width="20" height="20" viewBox="0 0 20 20" fill="none" xmlns="http://www.w3.org/2000/svg">
    <path fill-rule="evenodd" clip-rule="evenodd" d="M6.49995 7.6818C6.49995 9.55883 8.06985 11.0862 9.99995 11.0862C11.93 11.0862 13.4999 9.55883 13.4999 7.6818V5.15418C13.4999 3.27666 11.93 1.74976 9.99995 1.74976C8.06985 1.74976 6.49995 3.27666 6.49995 5.15418V7.6818ZM8.52371 5.15399C8.52371 4.36226 9.18582 3.71856 9.9999 3.71856C10.814 3.71856 11.4761 4.36226 11.4761 5.15399V7.68161C11.4761 8.47334 10.814 9.11705 9.9999 9.11705C9.18582 9.11705 8.52371 8.47334 8.52371 7.68161V5.15399Z" fill="white"/>
    <path d="M16.2485 7.9304C16.5425 7.9304 16.772 8.17463 16.7485 8.45739C16.5065 11.3462 14.2915 13.6989 11.411 14.2712C11.174 14.3184 10.999 14.5101 10.999 14.7437V15.8387C10.999 16.1051 11.2225 16.3209 11.4985 16.3209H13.496C13.772 16.3209 13.9955 16.5367 13.9955 16.8031V17.7675C13.9955 18.0338 13.772 18.2497 13.496 18.2497H6.50396C6.22796 18.2497 6.00446 18.0338 6.00446 17.7675V16.8031C6.00446 16.5367 6.22796 16.3209 6.50396 16.3209H8.50146C8.77746 16.3209 9.00096 16.1051 9.00096 15.8387V14.7437C9.00096 14.5101 8.82596 14.3184 8.58896 14.2712C5.70846 13.6989 3.49346 11.3462 3.25146 8.45739C3.22796 8.17463 3.45746 7.9304 3.75146 7.9304H4.75396C5.00646 7.9304 5.22446 8.112 5.24796 8.35479C5.46996 10.6665 7.49096 12.4826 9.94296 12.4826H10.057C12.509 12.4826 14.53 10.6665 14.752 8.35479C14.7755 8.112 14.994 7.9304 15.246 7.9304H16.2485Z" fill="white"/>
    <path d="M9.9999 3.71856C9.18582 3.71856 8.52371 4.36226 8.52371 5.15399V7.68161C8.52371 8.47334 9.18582 9.11705 9.9999 9.11705C10.814 9.11705 11.4761 8.47334 11.4761 7.68161V5.15399C11.4761 4.36226 10.814 3.71856 9.9999 3.71856Z" fill="white"/>
</svg>
