<svg width="20" height="20" viewBox="0 0 20 20" fill="none" xmlns="http://www.w3.org/2000/svg">
<path fill-rule="evenodd" clip-rule="evenodd" d="M6.49993 7.68188C6.49993 9.55891 8.06984 11.0863 9.99993 11.0863C11.93 11.0863 13.4999 9.55891 13.4999 7.68188V5.15426C13.4999 3.27674 11.93 1.74983 9.99993 1.74983C8.06984 1.74983 6.49993 3.27674 6.49993 5.15426V7.68188ZM8.52369 5.15407C8.52369 4.36234 9.1858 3.71863 9.99988 3.71863C10.814 3.71863 11.4761 4.36234 11.4761 5.15407V7.68169C11.4761 8.47342 10.814 9.11713 9.99988 9.11713C9.1858 9.11713 8.52369 8.47342 8.52369 7.68169V5.15407ZM16.2484 7.93048C16.5424 7.93048 16.7719 8.17471 16.7484 8.45747C16.5064 11.3463 14.2914 13.699 11.4109 14.2713C11.1739 14.3185 10.9989 14.5102 10.9989 14.7438V15.8388C10.9989 16.1051 11.2224 16.321 11.4984 16.321H13.4959C13.7719 16.321 13.9954 16.5368 13.9954 16.8032V17.7675C13.9954 18.0339 13.7719 18.2497 13.4959 18.2497H6.50394C6.22794 18.2497 6.00444 18.0339 6.00444 17.7675V16.8032C6.00444 16.5368 6.22794 16.321 6.50394 16.321H8.50144C8.77744 16.321 9.00094 16.1051 9.00094 15.8388V14.7438C9.00094 14.5102 8.82594 14.3185 8.58894 14.2713C5.70844 13.699 3.49344 11.3463 3.25144 8.45747C3.22794 8.17471 3.45744 7.93048 3.75144 7.93048H4.75394C5.00644 7.93048 5.22444 8.11208 5.24794 8.35487C5.46994 10.6666 7.49094 12.4827 9.94294 12.4827H10.0569C12.5089 12.4827 14.5299 10.6666 14.7519 8.35487C14.7754 8.11208 14.9939 7.93048 15.2459 7.93048H16.2484Z" fill="#141C1E"/>
</svg>
