<svg width="24" height="24" viewBox="0 0 24 24" fill="none" xmlns="http://www.w3.org/2000/svg">
    <path d="M5.602 8.83163C4.91166 8.83166 4.35205 9.3913 4.35205 10.0816L4.35205 15.6829C4.35198 17.9003 6.17271 19.9448 7.95903 21.2922L8.04088 21.3539C8.16615 21.4484 8.23981 21.5962 8.23981 21.7531L8.23981 22.7524C8.23981 23.0286 8.46366 23.2524 8.73981 23.2524H15.6034C15.8795 23.2524 16.1034 23.0285 16.1034 22.7524L16.1034 21.753C16.1033 21.5961 16.177 21.4483 16.3023 21.3538L16.3842 21.2921C16.6468 21.094 16.898 20.8754 17.131 20.6425C18.4619 19.3117 19.6478 17.5503 19.6476 15.683L19.6479 7.11484C19.6479 6.65166 19.3836 5.71912 18.5725 5.71912C17.7615 5.71912 17.4421 6.65159 17.4421 7.11484V12.0668C17.4421 12.3268 17.2314 12.5376 16.9713 12.5376C16.7113 12.5376 16.5005 12.3269 16.5005 12.0668L16.5005 4.43239C16.5005 3.96927 16.1815 3.00433 15.3383 3.00433C14.4951 3.00433 14.1587 3.9692 14.1587 4.43239L14.1588 11.1434C14.1588 11.3422 13.9976 11.5034 13.7988 11.5034C13.6 11.5034 13.4388 11.3422 13.4388 11.1434L13.4389 2.16271C13.4389 1.69959 13.1011 0.747287 12.2486 0.747314C11.3962 0.747342 11.0102 1.69946 11.0102 2.16271L11.0102 11.1007C11.0102 11.3231 10.8299 11.5034 10.6075 11.5034C10.3851 11.5034 10.2047 11.3231 10.2047 11.1007L10.2047 4.84432C10.2047 4.38117 9.94432 3.46517 8.97497 3.46517C8.00563 3.46517 7.69775 4.38114 7.69775 4.84432L7.68783 13.1537C7.68756 13.3842 7.50061 13.5709 7.27009 13.5709C7.03938 13.5709 6.85235 13.3839 6.85235 13.1532V9.69953C6.823 9.48311 6.72544 9.28299 6.56838 9.12594C6.37859 8.93614 6.12629 8.83165 5.85787 8.83162L5.602 8.83163Z" fill="#141C1E"/>
</svg>
