<svg width="20" height="20" viewBox="0 0 20 20" fill="none" xmlns="http://www.w3.org/2000/svg">
<path fill-rule="evenodd" clip-rule="evenodd" d="M1.64738 3.07238C1.45087 2.87588 1.45087 2.55688 1.64738 2.35988L2.35988 1.64738C2.55638 1.45087 2.87587 1.45087 3.07237 1.64738L6.59088 5.16587C6.78787 5.36238 7.10638 5.36238 7.30337 5.16587L7.81337 4.65588C8.09688 4.37238 8.58187 4.51738 8.66288 4.90988L9.48938 8.89338C9.56237 9.24837 9.24837 9.56287 8.89337 9.48888L4.90987 8.66337C4.51687 8.58188 4.37238 8.09688 4.65588 7.81337L5.16587 7.30338C5.36238 7.10638 5.36238 6.78737 5.16587 6.59088L1.64738 3.07238ZM11.337 15.5904L10.511 11.6064C10.4375 11.2514 10.752 10.9369 11.107 11.0109L15.0905 11.8369C15.483 11.9179 15.628 12.4029 15.3445 12.6864L14.8345 13.1964C14.6375 13.3934 14.6375 13.7124 14.8345 13.9089L18.353 17.4274C18.5495 17.6239 18.5495 17.9429 18.353 18.1399L17.6405 18.8524C17.4435 19.0489 17.1245 19.0489 16.928 18.8524L13.4095 15.3339C13.2125 15.1374 12.894 15.1374 12.697 15.3339L12.187 15.8444C11.9035 16.1274 11.4185 15.9824 11.337 15.5904Z" fill="#141C1E"/>
</svg>
