<svg width="20" height="20" viewBox="0 0 20 20" fill="none" xmlns="http://www.w3.org/2000/svg">
<path d="M3.49646 5.09931L3.49646 5.74976C3.49646 6.02626 3.27241 6.24976 2.99635 6.24976L2.50023 6.24976C1.9481 6.24976 1.49999 6.69776 1.49999 7.24976L1.49999 16.2498C1.49999 16.8018 1.9481 17.2498 2.50023 17.2498L12.7071 17.2498C13.2593 17.2498 13.7074 16.8018 13.7074 16.2498V14.7348L17.1137 16.1598C17.4433 16.2976 17.79 16.2454 18.0543 16.0694L11.7069 11.2863V14.7498C11.7069 15.0258 11.4828 15.2498 11.2068 15.2498L4.00056 15.2498C3.7245 15.2498 3.50094 15.0258 3.50094 14.7498L3.50094 8.74981C3.50094 8.47381 3.7245 8.24981 4.00056 8.24981H7.67732L3.49646 5.09931Z" fill="#141C1E"/>
<path d="M11.7069 8.78203V8.74981C11.7069 8.47381 11.4828 8.24981 11.2068 8.24981L11.0006 8.24981L8.34644 6.24976L12.7071 6.24976C13.2593 6.24976 13.7074 6.69776 13.7074 7.24976L13.7074 8.70426L17.1237 7.31876C17.7813 7.05226 18.5 7.53576 18.5 8.24526V13.901L16.4996 12.3936V10.4984C16.4996 10.1454 16.144 9.90343 15.8154 10.0334L14.2089 10.6674L11.7069 8.78203Z" fill="#141C1E"/>
<path d="M6.35587 4.74976L10.9982 4.74976C11.2743 4.74976 11.4983 4.52576 11.4983 4.24976L11.4983 3.24976C11.4983 2.97376 11.2743 2.74976 10.9982 2.74976L4.4967 2.74976C4.2874 2.74976 4.09317 2.81394 3.93262 2.92371L6.35587 4.74976Z" fill="#141C1E"/>
<path d="M0.250393 5.15729C0.00349462 4.97124 -0.0619348 4.64163 0.104252 4.4211L0.706067 3.62246C0.872254 3.40192 1.18576 3.35786 1.40629 3.52405L19.7861 17.3742C20.0066 17.5404 20.0507 17.8539 19.8845 18.0744L19.2827 18.8731C19.1165 19.0936 18.7816 19.1216 18.5347 18.9355L0.250393 5.15729Z" fill="#141C1E"/>
</svg>
