<svg width="20" height="20" viewBox="0 0 20 20" fill="none" xmlns="http://www.w3.org/2000/svg">
<path fill-rule="evenodd" clip-rule="evenodd" d="M6.4999 7.68205C6.4999 9.55908 8.06981 11.0865 9.9999 11.0865C11.93 11.0865 13.4999 9.55908 13.4999 7.68205V5.15442C13.4999 3.2769 11.93 1.75 9.9999 1.75C8.06981 1.75 6.4999 3.2769 6.4999 5.15442V7.68205ZM8.52366 5.15423C8.52366 4.36251 9.18577 3.7188 9.99986 3.7188C10.8139 3.7188 11.476 4.36251 11.476 5.15423V7.68186C11.476 8.47358 10.8139 9.11729 9.99986 9.11729C9.18577 9.11729 8.52366 8.47358 8.52366 7.68186V5.15423ZM16.2484 7.93064C16.5424 7.93064 16.7719 8.17487 16.7484 8.45764C16.5064 11.3465 14.2914 13.6992 11.4109 14.2714C11.1739 14.3186 10.9989 14.5104 10.9989 14.744V15.8389C10.9989 16.1053 11.2224 16.3211 11.4984 16.3211H13.4959C13.7719 16.3211 13.9954 16.5369 13.9954 16.8033V17.7677C13.9954 18.0341 13.7719 18.2499 13.4959 18.2499H6.50391C6.22791 18.2499 6.00441 18.0341 6.00441 17.7677V16.8033C6.00441 16.5369 6.22791 16.3211 6.50391 16.3211H8.50141C8.77741 16.3211 9.00091 16.1053 9.00091 15.8389V14.744C9.00091 14.5104 8.82591 14.3186 8.58891 14.2714C5.70841 13.6992 3.49341 11.3465 3.25141 8.45764C3.22791 8.17487 3.45741 7.93064 3.75141 7.93064H4.75391C5.00641 7.93064 5.22441 8.11225 5.24791 8.35503C5.46991 10.6668 7.49091 12.4828 9.94291 12.4828H10.0569C12.5089 12.4828 14.5299 10.6668 14.7519 8.35503C14.7754 8.11225 14.9939 7.93064 15.2459 7.93064H16.2484Z" fill="#FFF"/>
</svg>
