<svg width="20" height="20" viewBox="0 0 20 20" fill="none" xmlns="http://www.w3.org/2000/svg">
<path fill-rule="evenodd" clip-rule="evenodd" d="M12.3099 6.11269C12.4606 6.12777 12.6199 6.21727 12.6888 6.35384L13.5894 8.05496C13.6523 8.18089 13.6536 8.31166 13.6043 8.42658C13.5559 8.5395 13.4619 8.6305 13.3446 8.68913L13.3336 8.69464L11.5264 9.09625C11.3372 9.15716 11.1695 9.09251 11.0699 8.95969C10.973 8.83046 10.9459 8.64549 11.005 8.46807L11.0078 8.45987L11.067 8.32372L11.0692 8.3186C11.1184 8.22027 11.1341 8.15417 11.1248 8.11067C11.1185 8.08081 11.0938 8.03472 10.9726 7.99595C10.7124 7.93109 10.4886 7.89969 10.2999 7.89969C9.31764 7.89969 8.54528 8.16962 8.01895 8.67203C7.49332 9.17376 7.1999 9.91992 7.1999 10.8997V11.0997C7.1999 11.4572 6.95672 11.6862 6.63153 11.7946L6.62423 11.797L6.22771 11.8958C5.87211 12.0118 5.4999 11.7748 5.4999 11.3997V11.1015C5.44952 9.67954 5.88162 8.50155 6.70419 7.67898C7.52671 6.85646 8.72923 6.39969 10.1999 6.39969C10.7116 6.39969 11.2205 6.5018 11.6232 6.60244C11.6987 6.61969 11.7364 6.61441 11.7626 6.60074C11.791 6.5859 11.8268 6.55049 11.8725 6.46043L11.9053 6.36721C11.9378 6.27054 11.997 6.2002 12.073 6.15771C12.1476 6.116 12.2316 6.10486 12.3099 6.11269Z" fill="white"/>
<path fill-rule="evenodd" clip-rule="evenodd" d="M14.4999 10.4997C14.4999 10.1246 14.1277 9.8876 13.7721 10.0036L13.3756 10.1027L13.3683 10.1048C13.2016 10.1604 13.0801 10.2476 13.0026 10.3717C12.9263 10.4937 12.8999 10.6398 12.8999 10.7997V11.0997C12.8999 12.0819 12.6301 12.8281 12.1292 13.329C11.6283 13.8299 10.8821 14.0997 9.8999 14.0997C9.59261 14.0997 9.37608 14.0975 9.20152 14.0102C9.15571 13.9873 9.13182 13.9582 9.12004 13.9227C9.10728 13.8842 9.10529 13.8273 9.12624 13.7453L9.19477 13.5313C9.25366 13.3541 9.22672 13.1688 9.1299 13.0397C9.03029 12.9069 8.86265 12.8422 8.67344 12.9031L6.86619 13.3047L6.85518 13.3102C6.73791 13.3689 6.64388 13.4599 6.59549 13.5728C6.54655 13.687 6.54748 13.8168 6.60926 13.942L7.30829 15.5398L7.31046 15.5444C7.37906 15.6816 7.53874 15.7716 7.68995 15.7867C7.76823 15.7945 7.85218 15.7834 7.92681 15.7417C8.00307 15.6991 8.0624 15.6284 8.09477 15.5313C8.12338 15.4455 8.16335 15.3896 8.2099 15.3547C8.25381 15.3218 8.31129 15.3017 8.38818 15.2998C8.78905 15.3995 9.29308 15.4997 9.7999 15.4997C11.2706 15.4997 12.4731 15.0429 13.2956 14.2204C14.1182 13.3978 14.5503 12.2198 14.4999 10.7979V10.4997Z" fill="white"/>
<path fill-rule="evenodd" clip-rule="evenodd" d="M6.57451 1.45093C6.73774 1.35571 6.92995 1.2998 7.0999 1.2998H12.7999C13.2387 1.2998 13.5677 1.52129 13.7831 1.84433L13.7867 1.85019L15.3916 4.65879L15.3948 4.66818C15.4392 4.80153 15.502 4.88004 15.5779 4.9275C15.6559 4.97624 15.7598 4.9998 15.8999 4.9998H18.4999C19.1615 4.9998 19.5999 5.55119 19.5999 6.0998V17.5998C19.5999 18.2614 19.0485 18.6998 18.4999 18.6998H1.4999C0.838288 18.6998 0.399902 18.1484 0.399902 17.5998V6.0998C0.399902 5.43819 0.951284 4.9998 1.4999 4.9998H4.0999C4.27768 4.9998 4.52424 4.91057 4.60503 4.66818L4.60816 4.65879L6.2084 1.85838C6.27065 1.68219 6.4149 1.54404 6.57451 1.45093ZM7.58934 3.74453C7.62901 3.6652 7.71422 3.57711 7.81787 3.50801C7.92267 3.43815 8.02802 3.3998 8.0999 3.3998H11.7999C11.94 3.3998 12.0439 3.42337 12.1219 3.4721C12.1978 3.51957 12.2606 3.59808 12.305 3.73143L12.3086 3.74209L14.0144 6.5517L14.0167 6.55527C14.2321 6.87832 14.5611 7.0998 14.9999 7.0998H16.8999C17.2447 7.0998 17.4999 7.35503 17.4999 7.6998V15.8998C17.4999 16.2446 17.2447 16.4998 16.8999 16.4998H3.1999C2.85513 16.4998 2.5999 16.2446 2.5999 15.8998V7.6998C2.5999 7.35503 2.85513 7.0998 3.1999 7.0998H5.0999C5.53869 7.0998 5.86774 6.87832 6.08311 6.55527L6.08805 6.54703L7.58805 3.74703L7.58934 3.74453ZM12.6888 6.35384C12.6199 6.21727 12.4606 6.12777 12.3099 6.11269C12.2316 6.10486 12.1476 6.116 12.073 6.15771C11.997 6.2002 11.9378 6.27054 11.9053 6.36721L11.8725 6.46043C11.8268 6.55049 11.791 6.5859 11.7626 6.60074C11.7364 6.61441 11.6987 6.61969 11.6232 6.60244C11.2205 6.5018 10.7116 6.39969 10.1999 6.39969C8.72923 6.39969 7.52671 6.85646 6.70419 7.67898C5.88162 8.50155 5.44952 9.67954 5.4999 11.1015V11.3997C5.4999 11.7748 5.87211 12.0118 6.22771 11.8958L6.62423 11.797L6.63153 11.7946C6.95672 11.6862 7.1999 11.4572 7.1999 11.0997V10.8997C7.1999 9.91992 7.49332 9.17376 8.01895 8.67203C8.54528 8.16962 9.31764 7.89969 10.2999 7.89969C10.4886 7.89969 10.7124 7.93109 10.9726 7.99595C11.0938 8.03472 11.1185 8.08081 11.1248 8.11067C11.1341 8.15417 11.1184 8.22027 11.0692 8.3186L11.067 8.32372L11.0078 8.45987L11.005 8.46807C10.9459 8.64549 10.973 8.83046 11.0699 8.95969C11.1695 9.09251 11.3372 9.15716 11.5264 9.09625L13.3336 8.69464L13.3446 8.68913C13.4619 8.6305 13.5559 8.5395 13.6043 8.42658C13.6536 8.31166 13.6523 8.18089 13.5894 8.05496L12.6888 6.35384ZM13.7721 10.0036C14.1277 9.8876 14.4999 10.1246 14.4999 10.4997V10.7979C14.5503 12.2198 14.1182 13.3978 13.2956 14.2204C12.4731 15.0429 11.2706 15.4997 9.7999 15.4997C9.29308 15.4997 8.78905 15.3995 8.38818 15.2998C8.31129 15.3017 8.25381 15.3218 8.2099 15.3547C8.16335 15.3896 8.12338 15.4455 8.09477 15.5313C8.0624 15.6284 8.00307 15.6991 7.92681 15.7417C7.85218 15.7834 7.76823 15.7945 7.68995 15.7867C7.53874 15.7716 7.37906 15.6816 7.31046 15.5444L7.30829 15.5398L6.60926 13.942C6.54748 13.8168 6.54655 13.687 6.59549 13.5728C6.64388 13.4599 6.73791 13.3689 6.85518 13.3102L6.86619 13.3047L8.67344 12.9031C8.86265 12.8422 9.03029 12.9069 9.1299 13.0397C9.22672 13.1688 9.25366 13.3541 9.19477 13.5313L9.12624 13.7453C9.10529 13.8273 9.10728 13.8842 9.12004 13.9227C9.13182 13.9582 9.15571 13.9873 9.20152 14.0102C9.37608 14.0975 9.59261 14.0997 9.8999 14.0997C10.8821 14.0997 11.6283 13.8299 12.1292 13.329C12.6301 12.8281 12.8999 12.0819 12.8999 11.0997V10.7997C12.8999 10.6398 12.9263 10.4937 13.0026 10.3717C13.0801 10.2476 13.2016 10.1604 13.3683 10.1048L13.3756 10.1027L13.7721 10.0036Z" fill="white"/>
</svg>
