<svg width="20" height="20" viewBox="0 0 20 20" fill="none" xmlns="http://www.w3.org/2000/svg">
<path fill-rule="evenodd" clip-rule="evenodd" d="M9.35264 7.92739C9.54914 8.12389 9.54914 8.44289 9.35264 8.63989L8.64014 9.35239C8.44364 9.54889 8.12414 9.54889 7.92764 9.35239L4.40914 5.83389C4.21214 5.63739 3.89364 5.63739 3.69664 5.83389L3.18664 6.34389C2.90314 6.62739 2.41814 6.48239 2.33714 6.08989L1.51064 2.10639C1.43764 1.75139 1.75164 1.43689 2.10664 1.51089L6.09014 2.33639C6.48314 2.41789 6.62764 2.90289 6.34414 3.18639L5.83414 3.69639C5.63764 3.89339 5.63764 4.21239 5.83414 4.40889L9.35264 7.92739ZM17.6637 14.4094L18.4897 18.3934C18.5631 18.7484 18.2486 19.0629 17.8937 18.9889L13.9101 18.1629C13.5176 18.0819 13.3727 17.5969 13.6561 17.3134L14.1661 16.8034C14.3631 16.6064 14.3631 16.2874 14.1661 16.0909L10.6476 12.5724C10.4511 12.3759 10.4511 12.0569 10.6476 11.8599L11.3601 11.1474C11.5571 10.9509 11.8762 10.9509 12.0726 11.1474L15.5912 14.6659C15.7881 14.8624 16.1066 14.8624 16.3036 14.6659L16.8137 14.1554C17.0971 13.8724 17.5821 14.0174 17.6637 14.4094Z" fill="#141C1E"/>
</svg>
