<svg width="16" height="16" viewBox="0 0 16 16" fill="none" xmlns="http://www.w3.org/2000/svg">
<path d="M1.17959 6.7173C5.04341 3.04173 11.187 3.09499 14.9847 6.87711C16.3385 8.22528 16.3383 10.417 14.9847 11.7651L14.1627 12.5837C13.9176 12.8278 13.5354 12.8702 13.2423 12.6858L9.31367 10.2144C9.04122 10.043 8.9111 9.71602 8.99171 9.4053L9.11962 8.91219L8.95407 8.87759C8.31679 8.75793 7.66436 8.75775 7.03474 8.87652L6.88054 8.90905L7.01755 9.34933C7.11711 9.66922 6.98805 10.0158 6.70314 10.1937L2.73795 12.6695C2.44504 12.8524 2.0641 12.8094 1.81965 12.566C1.55157 12.299 1.28349 12.032 1.01541 11.7651C-0.300861 10.4542 -0.337424 8.3465 0.905717 6.99138L1.01541 6.87711L1.17959 6.7173ZM13.936 10.7206C14.7104 9.9494 14.7105 8.69286 13.936 7.92154C10.7143 4.71315 5.50289 4.66302 2.21906 7.77115L2.06416 7.92154L1.97821 8.01265C1.31814 8.75788 1.31814 9.88429 1.97821 10.6295L2.00263 10.6568C2.24317 10.9253 2.64301 10.9821 2.94933 10.7912L5.43536 9.24223L5.24427 8.63436C5.12663 8.26012 5.32319 7.85957 5.69196 7.72207C7.08532 7.20255 8.63493 7.17484 10.0664 7.63982L10.3039 7.72188C10.6746 7.85781 10.8738 8.25951 10.7561 8.6351L10.5658 9.24223L13.0832 10.8164C13.3552 10.9865 13.709 10.9467 13.936 10.7206Z" fill="white"/>
</svg>
