<svg width="20" height="20" viewBox="0 0 20 20" fill="none" xmlns="http://www.w3.org/2000/svg">
<path fill-rule="evenodd" clip-rule="evenodd" d="M9 20C8.44772 20 8 19.5523 8 19V17C8 16.4477 8.44772 16 9 16H11C11.5523 16 12 16.4477 12 17V19C12 19.5523 11.5523 20 11 20H9ZM9 12C8.44772 12 8 11.5523 8 11V9C8 8.44771 8.44772 8 9 8H11C11.5523 8 12 8.44771 12 9V11C12 11.5523 11.5523 12 11 12H9ZM8 3C8 3.55228 8.44772 4 9 4H11C11.5523 4 12 3.55228 12 3V1C12 0.447716 11.5523 0 11 0H9C8.44772 0 8 0.447716 8 1V3Z"/>
</svg>
