<svg width="20" height="20" viewBox="0 0 20 20" fill="none" xmlns="http://www.w3.org/2000/svg">
<path fill-rule="evenodd" clip-rule="evenodd" d="M4.60647 4.63034L6.16492 1.78373C6.33654 1.47036 6.66889 1.2749 7.03007 1.2749H12.8022C13.1634 1.2749 13.4957 1.47035 13.6674 1.78373L15.2258 4.63034C15.3513 4.86054 15.595 5.00297 15.8597 5.00297H18.433C18.976 5.00297 19.4161 5.43689 19.4161 5.97184V17.5066C19.4161 18.0414 18.9761 18.4749 18.433 18.4749H1.39931C0.856184 18.4749 0.416138 18.0414 0.416138 17.5066V5.97184C0.416138 5.43689 0.856284 5.00297 1.39931 5.00297H3.97253C4.23724 5.00297 4.48096 4.86048 4.60647 4.63034ZM7.01716 10.8265C7.03273 11.0933 6.87259 11.3498 6.61293 11.4131L6.25471 11.5004C5.98125 11.567 5.70396 11.3948 5.67498 11.1148C5.66606 11.0286 5.65948 10.9418 5.6553 10.8544C5.51928 8.01698 7.36365 6.22301 10.2355 6.22301C10.7249 6.22301 11.211 6.29422 11.6771 6.4299C11.8377 6.47648 12.0095 6.41067 12.0848 6.26419L12.1266 6.18352C12.2552 5.93275 12.6241 5.94119 12.7412 6.19736L13.4848 7.82417C13.5729 8.01655 13.4581 8.23931 13.2478 8.28487L11.4688 8.67065C11.1887 8.7314 10.9622 8.44654 11.0911 8.19611L11.1424 8.09688C11.2434 7.90045 11.1259 7.66014 10.9052 7.61829C10.6851 7.57711 10.4613 7.5545 10.2355 7.5545C8.19494 7.5545 7.01109 8.6218 7.01109 10.6178C7.01109 10.6879 7.01313 10.7574 7.01716 10.8265ZM12.9829 10.5276C12.9673 10.2608 13.1274 10.0043 13.3871 9.94101L13.7453 9.85371C14.0188 9.78707 14.2961 9.95926 14.325 10.2392C14.334 10.3254 14.3405 10.4123 14.3447 10.4996C14.4807 13.3371 12.6364 15.1311 9.76447 15.1311C9.27508 15.1311 8.78906 15.0598 8.32296 14.9242C8.1623 14.8776 7.99051 14.9434 7.91524 15.0899L7.87339 15.1706C7.7448 15.4213 7.3759 15.4129 7.25878 15.1567L6.51524 13.5299C6.42715 13.3375 6.5419 13.1148 6.75218 13.0692L8.5312 12.6834C8.81134 12.6227 9.03781 12.9075 8.90888 13.158L8.85758 13.2572C8.75666 13.4536 8.87411 13.6939 9.09485 13.7358C9.31491 13.777 9.53868 13.7996 9.76447 13.7996C11.8051 13.7996 12.9889 12.7323 12.9889 10.7362C12.9889 10.6662 12.9869 10.5967 12.9829 10.5276Z" />
</svg>
