<svg width="20" height="20" viewBox="0 0 20 20" fill="none" xmlns="http://www.w3.org/2000/svg">
<path fill-rule="evenodd" clip-rule="evenodd" d="M12.3099 6.11293C12.4607 6.12801 12.62 6.21752 12.6889 6.35408L13.5895 8.0552C13.6524 8.18113 13.6537 8.3119 13.6044 8.42683C13.556 8.53975 13.462 8.63074 13.3447 8.68938L13.3337 8.69488L11.5265 9.09649C11.3373 9.15741 11.1696 9.09275 11.07 8.95993C10.9731 8.8307 10.946 8.64574 11.0051 8.46831L11.0079 8.46012L11.0671 8.32397L11.0693 8.31884C11.1185 8.22051 11.1342 8.15441 11.1249 8.11091C11.1186 8.08105 11.0939 8.03496 10.9727 7.9962C10.7125 7.93134 10.4887 7.89993 10.3 7.89993C9.31773 7.89993 8.54537 8.16986 8.01904 8.67227C7.49342 9.174 7.19999 9.92016 7.19999 10.8999V11.0999C7.19999 11.4574 6.95681 11.6864 6.63162 11.7948L6.62432 11.7972L6.2278 11.8961C5.8722 12.012 5.49999 11.7751 5.49999 11.3999V11.1017C5.44961 9.67978 5.88171 8.50179 6.70428 7.67922C7.5268 6.85671 8.72932 6.39993 10.2 6.39993C10.7117 6.39993 11.2206 6.50204 11.6233 6.60268C11.6988 6.61994 11.7365 6.61465 11.7627 6.60098C11.7911 6.58615 11.8269 6.55073 11.8726 6.46068L11.9054 6.36745C11.9378 6.27078 11.997 6.20045 12.0731 6.15795C12.1477 6.11625 12.2317 6.1051 12.3099 6.11293Z" fill="#141C1E"/>
<path fill-rule="evenodd" clip-rule="evenodd" d="M14.5 10.4999C14.5 10.1248 14.1278 9.88784 13.7722 10.0038L13.3757 10.1029L13.3684 10.1051C13.2017 10.1606 13.0802 10.2479 13.0027 10.3719C12.9264 10.494 12.9 10.64 12.9 10.7999V11.0999C12.9 12.0821 12.6302 12.8283 12.1293 13.3292C11.6284 13.8301 10.8822 14.0999 9.89999 14.0999C9.5927 14.0999 9.37617 14.0978 9.20161 14.0105C9.15581 13.9876 9.13191 13.9585 9.12013 13.9229C9.10737 13.8845 9.10538 13.8275 9.12633 13.7456L9.19486 13.5316C9.25375 13.3543 9.22681 13.169 9.13 13.0399C9.03038 12.9071 8.86274 12.8425 8.67353 12.9034L6.86628 13.305L6.85527 13.3105C6.738 13.3691 6.64397 13.4601 6.59558 13.573C6.54664 13.6872 6.54757 13.8171 6.60935 13.9422L7.30838 15.54L7.31055 15.5447C7.37915 15.6819 7.53884 15.7718 7.69004 15.7869C7.76832 15.7948 7.85227 15.7836 7.9269 15.7419C8.00317 15.6993 8.06249 15.6287 8.09486 15.5316C8.12347 15.4457 8.16344 15.3898 8.21 15.3549C8.2539 15.322 8.31138 15.3019 8.38828 15.3001C8.78915 15.3998 9.29317 15.4999 9.8 15.4999C11.2707 15.4999 12.4732 15.0432 13.2957 14.2206C14.1183 13.3981 14.5504 12.2201 14.5 10.7982V10.4999Z" fill="#141C1E"/>
<path fill-rule="evenodd" clip-rule="evenodd" d="M6.57461 1.45117C6.73783 1.35596 6.93004 1.30005 7.09999 1.30005H12.8C13.2388 1.30005 13.5678 1.52153 13.7832 1.84458L13.7868 1.85043L15.3917 4.65903L15.3949 4.66843C15.4393 4.80178 15.502 4.88028 15.578 4.92775C15.656 4.97649 15.7599 5.00005 15.9 5.00005H18.5C19.1616 5.00005 19.6 5.55143 19.6 6.10005V17.6C19.6 18.2617 19.0486 18.7001 18.5 18.7001H1.49999C0.838379 18.7001 0.399994 18.1487 0.399994 17.6V6.10005C0.399994 5.43843 0.951376 5.00005 1.49999 5.00005H4.09999C4.27778 5.00005 4.52433 4.91081 4.60512 4.66843L4.60826 4.65903L6.20849 1.85862C6.27074 1.68244 6.41499 1.54428 6.57461 1.45117ZM7.58944 3.74477C7.6291 3.66544 7.71431 3.57736 7.81796 3.50825C7.92276 3.43839 8.02811 3.40005 8.09999 3.40005H11.8C11.9401 3.40005 12.044 3.42361 12.122 3.47235C12.1979 3.51981 12.2607 3.59832 12.3051 3.73167L12.3087 3.74234L14.0145 6.55195L14.0168 6.55552C14.2322 6.87857 14.5612 7.10005 15 7.10005H16.9C17.2448 7.10005 17.5 7.35528 17.5 7.70005V15.9C17.5 16.2448 17.2448 16.5 16.9 16.5H3.19999C2.85522 16.5 2.59999 16.2448 2.59999 15.9V7.70005C2.59999 7.35528 2.85522 7.10005 3.19999 7.10005H5.09999C5.53878 7.10005 5.86783 6.87857 6.0832 6.55552L6.08814 6.54727L7.58814 3.74727L7.58944 3.74477ZM12.6889 6.35408C12.62 6.21752 12.4607 6.12801 12.3099 6.11293C12.2317 6.1051 12.1477 6.11625 12.0731 6.15795C11.997 6.20045 11.9378 6.27078 11.9054 6.36745L11.8726 6.46068C11.8269 6.55073 11.7911 6.58615 11.7627 6.60098C11.7365 6.61465 11.6988 6.61994 11.6233 6.60268C11.2206 6.50204 10.7117 6.39993 10.2 6.39993C8.72932 6.39993 7.5268 6.85671 6.70428 7.67922C5.88171 8.50179 5.44961 9.67978 5.49999 11.1017V11.3999C5.49999 11.7751 5.8722 12.012 6.2278 11.8961L6.62432 11.7972L6.63162 11.7948C6.95681 11.6864 7.19999 11.4574 7.19999 11.0999V10.8999C7.19999 9.92016 7.49342 9.174 8.01904 8.67227C8.54537 8.16986 9.31773 7.89993 10.3 7.89993C10.4887 7.89993 10.7125 7.93134 10.9727 7.9962C11.0939 8.03496 11.1186 8.08105 11.1249 8.11091C11.1342 8.15441 11.1185 8.22051 11.0693 8.31884L11.0671 8.32397L11.0079 8.46012L11.0051 8.46831C10.946 8.64574 10.9731 8.8307 11.07 8.95993C11.1696 9.09275 11.3373 9.15741 11.5265 9.09649L13.3337 8.69488L13.3447 8.68938C13.462 8.63074 13.556 8.53975 13.6044 8.42683C13.6537 8.3119 13.6524 8.18113 13.5895 8.0552L12.6889 6.35408ZM13.7722 10.0038C14.1278 9.88784 14.5 10.1248 14.5 10.4999V10.7982C14.5504 12.2201 14.1183 13.3981 13.2957 14.2206C12.4732 15.0432 11.2707 15.4999 9.8 15.4999C9.29317 15.4999 8.78915 15.3998 8.38828 15.3001C8.31138 15.3019 8.2539 15.322 8.21 15.3549C8.16344 15.3898 8.12347 15.4457 8.09486 15.5316C8.06249 15.6287 8.00317 15.6993 7.9269 15.7419C7.85227 15.7836 7.76832 15.7948 7.69004 15.7869C7.53884 15.7718 7.37915 15.6819 7.31055 15.5447L7.30838 15.54L6.60935 13.9422C6.54757 13.8171 6.54664 13.6872 6.59558 13.573C6.64397 13.4601 6.738 13.3691 6.85527 13.3105L6.86628 13.305L8.67353 12.9034C8.86274 12.8425 9.03038 12.9071 9.13 13.0399C9.22681 13.169 9.25375 13.3543 9.19486 13.5316L9.12633 13.7456C9.10538 13.8275 9.10737 13.8845 9.12013 13.9229C9.13191 13.9585 9.15581 13.9876 9.20161 14.0105C9.37617 14.0978 9.5927 14.0999 9.89999 14.0999C10.8822 14.0999 11.6284 13.8301 12.1293 13.3292C12.6302 12.8283 12.9 12.0821 12.9 11.0999V10.7999C12.9 10.64 12.9264 10.494 13.0027 10.3719C13.0802 10.2479 13.2017 10.1606 13.3684 10.1051L13.3757 10.1029L13.7722 10.0038Z" fill="#141C1E"/>
</svg>
