<svg width="24" height="24" viewBox="0 0 24 24" fill="none" xmlns="http://www.w3.org/2000/svg">
    <path fill-rule="evenodd" clip-rule="evenodd" d="M16.298 6.70793L14.2898 5.86596C13.5558 5.64997 12.7998 5.52002 11.9998 5.52002C6.72982 5.52002 2.64677 11.136 2.47375 11.3741L2.23301 11.7067C2.10632 11.8817 2.10642 12.1184 2.23327 12.2933L2.4746 12.6262L2.48671 12.6425C2.69963 12.9301 4.72657 15.6677 7.70158 17.2922L9.71064 18.1562C10.4447 18.3722 11.2007 18.5021 12.0007 18.5021C17.2706 18.5021 21.3537 12.8861 21.5267 12.6481L21.7678 12.3156C21.8948 12.1405 21.8948 11.9036 21.7678 11.7285L21.5267 11.396C21.3959 11.2011 19.344 8.37092 16.298 6.70793ZM5.01658 11.6809C6.28823 10.24 8.97708 7.67993 12 7.67993C12.389 7.67993 12.7991 7.72296 13.1661 7.80987C13.962 8.00104 14.4168 8.16631 15.241 8.58701C16.849 9.46847 18.1862 10.7912 18.9809 11.682C19.1434 11.864 19.1448 12.1363 18.9833 12.3191C17.7111 13.7601 15.023 16.3199 12 16.3199C11.6111 16.3199 11.201 16.2769 10.834 16.19C9.99735 15.9548 9.54942 15.7887 8.78203 15.4129C7.15372 14.5313 5.81392 13.2085 5.01904 12.3178C4.85667 12.1359 4.85522 11.8637 5.01658 11.6809ZM12.0006 15.1812C13.8141 15.1812 15.2841 13.7495 15.2841 11.9835C15.2841 10.2174 13.8141 8.78574 12.0006 8.78574C10.1872 8.78574 8.71716 10.2174 8.71716 11.9835C8.71716 13.7495 10.1872 15.1812 12.0006 15.1812Z" fill="#141C1E"/>
</svg>
