<svg width="24" height="24" viewBox="0 0 24 24" fill="none" xmlns="http://www.w3.org/2000/svg">
    <path fill-rule="evenodd" clip-rule="evenodd" d="M12.1694 4.78469L4.81064 8.76406C4.71746 8.82752 4.6077 8.86125 4.49507 8.86125H2.58387C2.27173 8.86125 2.01904 9.11508 2.01904 9.42893V14.3401C2.01904 14.6534 2.27173 14.9078 2.58387 14.9078H4.50536C4.61741 14.9078 4.72718 14.9415 4.82036 15.0044L12.1694 18.9775C12.545 19.2313 13.0498 18.9609 13.0498 18.5064V5.25576C13.0498 4.80127 12.545 4.53086 12.1694 4.78469ZM15.3425 15.4089L14.796 14.4313C14.6657 14.1981 14.7268 13.9122 14.9246 13.7344C15.3791 13.3262 15.6484 12.7363 15.6484 12.1103C15.6484 11.4951 15.3871 10.912 14.9452 10.505C14.7491 10.3237 14.6914 10.0373 14.8246 9.80523L15.3837 8.83508C15.5501 8.54523 15.9359 8.46463 16.1955 8.67272C17.2222 9.49823 17.8397 10.7657 17.8397 12.1103C17.8397 13.4766 17.2062 14.7566 16.1532 15.581C15.8908 15.7862 15.506 15.701 15.3425 15.4089ZM17.1255 6.96357C18.7331 8.09951 19.7896 9.98035 19.7896 12.1104C19.7896 14.2891 18.6857 16.21 17.0146 17.3368C16.7848 17.4917 16.7208 17.8061 16.8528 18.0514L17.3782 19.0261C17.5343 19.3154 17.9002 19.3983 18.1729 19.2176C20.4636 17.6981 21.9809 15.0815 21.9809 12.1104C21.9809 9.21372 20.5362 6.65829 18.3409 5.12389C18.0768 4.93924 17.7144 5.00841 17.5486 5.28682L16.9826 6.2341C16.8368 6.47821 16.894 6.80007 17.1255 6.96357Z" fill="#141C1E"/>
</svg>
